<?xml version="1.0" encoding="utf-8"?>
<!-- Generator: Adobe Illustrator 22.1.0, SVG Export Plug-In . SVG Version: 6.00 Build 0)  -->
<svg version="1.1" id="Layer_1" xmlns="http://www.w3.org/2000/svg" xmlns:xlink="http://www.w3.org/1999/xlink" x="0px" y="0px"
	 viewBox="0 0 100 100" style="enable-background:new 0 0 100 100;" xml:space="preserve">
<style type="text/css">
	.st0{fill:#B28CFF;}
	.st1{fill:#D2C0FF;}
</style>
<g>
	<g>
		<rect x="47.9" y="13.1" class="st0" width="4.2" height="73.7"/>
		<circle class="st0" cx="50" cy="50" r="27.1"/>
		<rect x="47.9" y="9.7" transform="matrix(0.7071 -0.7071 0.7071 0.7071 -20.7107 50)" class="st0" width="4.2" height="80.5"/>
		<rect x="47.9" y="13.1" transform="matrix(6.123234e-17 -1 1 6.123234e-17 0 100)" class="st0" width="4.2" height="73.7"/>
		<rect x="9.7" y="47.9" transform="matrix(0.7071 -0.7071 0.7071 0.7071 -20.7107 50)" class="st0" width="80.5" height="4.2"/>
	</g>
	<g>
		<g>
			<g>
				<path class="st0" d="M50,4c2,0,3.6,1.6,3.6,3.6S52,11.3,50,11.3s-3.6-1.6-3.6-3.6S48,4,50,4 M50,0c-4.2,0-7.6,3.4-7.6,7.6
					s3.4,7.6,7.6,7.6s7.6-3.4,7.6-7.6S54.2,0,50,0L50,0z"/>
			</g>
		</g>
		<g>
			<g>
				<path class="st0" d="M50,88.7c2,0,3.6,1.6,3.6,3.6S52,96,50,96s-3.6-1.6-3.6-3.6S48,88.7,50,88.7 M50,84.7
					c-4.2,0-7.6,3.4-7.6,7.6s3.4,7.6,7.6,7.6s7.6-3.4,7.6-7.6S54.2,84.7,50,84.7L50,84.7z"/>
			</g>
		</g>
		<g>
			<g>
				<path class="st0" d="M7.6,46.4c2,0,3.6,1.6,3.6,3.6s-1.6,3.6-3.6,3.6S4,52,4,50S5.6,46.4,7.6,46.4 M7.6,42.4
					C3.4,42.4,0,45.8,0,50s3.4,7.6,7.6,7.6s7.6-3.4,7.6-7.6S11.8,42.4,7.6,42.4L7.6,42.4z"/>
			</g>
		</g>
		<g>
			<g>
				<path class="st0" d="M92.4,46.4c2,0,3.6,1.6,3.6,3.6s-1.6,3.6-3.6,3.6S88.7,52,88.7,50S90.4,46.4,92.4,46.4 M92.4,42.4
					c-4.2,0-7.6,3.4-7.6,7.6s3.4,7.6,7.6,7.6s7.6-3.4,7.6-7.6S96.6,42.4,92.4,42.4L92.4,42.4z"/>
			</g>
		</g>
	</g>
	<g>
		<g>
			<path class="st1" d="M80,25.7c-1.5,0-2.9-0.6-4-1.6c-1.1-1.1-1.6-2.5-1.6-4c0-1.5,0.6-2.9,1.6-4c1.1-1.1,2.5-1.6,4-1.6
				c1.5,0,2.9,0.6,4,1.6c2.2,2.2,2.2,5.8,0,8C82.9,25.1,81.5,25.7,80,25.7z"/>
			<g>
				<path class="st0" d="M80,16.4c1,0,1.9,0.4,2.6,1.1c0.7,0.7,1.1,1.6,1.1,2.6c0,1-0.4,1.9-1.1,2.6c-0.7,0.7-1.6,1.1-2.6,1.1
					s-1.9-0.4-2.6-1.1c-0.7-0.7-1.1-1.6-1.1-2.6s0.4-1.9,1.1-2.6C78.1,16.8,79,16.4,80,16.4 M80,12.4c-2,0-3.9,0.7-5.4,2.2
					c-3,3-3,7.8,0,10.8c1.5,1.5,3.4,2.2,5.4,2.2s3.9-0.7,5.4-2.2c3-3,3-7.8,0-10.8C83.9,13.2,81.9,12.4,80,12.4L80,12.4z"/>
			</g>
		</g>
		<g>
			<path class="st1" d="M20,85.6c-1.5,0-2.9-0.6-4-1.6c-1.1-1.1-1.6-2.5-1.6-4c0-1.5,0.6-2.9,1.6-4c1.1-1.1,2.5-1.6,4-1.6
				c1.5,0,2.9,0.6,4,1.6c2.2,2.2,2.2,5.8,0,8C23,85,21.5,85.6,20,85.6z"/>
			<g>
				<path class="st0" d="M20,76.3c1,0,1.9,0.4,2.6,1.1c0.7,0.7,1.1,1.6,1.1,2.6s-0.4,1.9-1.1,2.6c-0.7,0.7-1.6,1.1-2.6,1.1
					c-1,0-1.9-0.4-2.6-1.1c-0.7-0.7-1.1-1.6-1.1-2.6c0-1,0.4-1.9,1.1-2.6C18.2,76.7,19.1,76.3,20,76.3 M20,72.3
					c-2,0-3.9,0.7-5.4,2.2c-3,3-3,7.8,0,10.8c1.5,1.5,3.4,2.2,5.4,2.2s3.9-0.7,5.4-2.2c3-3,3-7.8,0-10.8C23.9,73.1,22,72.3,20,72.3
					L20,72.3z"/>
			</g>
		</g>
		<g>
			<path class="st1" d="M80,85.6c-1.5,0-2.9-0.6-4-1.6s-1.6-2.5-1.6-4c0-1.5,0.6-2.9,1.6-4s2.5-1.6,4-1.6c1.5,0,2.9,0.6,4,1.6
				c2.2,2.2,2.2,5.8,0,8C82.9,85,81.5,85.6,80,85.6z"/>
			<g>
				<path class="st0" d="M80,76.3c1,0,1.9,0.4,2.6,1.1c0.7,0.7,1.1,1.6,1.1,2.6c0,1-0.4,1.9-1.1,2.6c-0.7,0.7-1.6,1.1-2.6,1.1
					c-1,0-1.9-0.4-2.6-1.1c-1.4-1.4-1.4-3.7,0-5.1C78.1,76.7,79,76.3,80,76.3 M80,72.3c-2,0-3.9,0.7-5.4,2.2c-3,3-3,7.8,0,10.8
					c1.5,1.5,3.4,2.2,5.4,2.2s3.9-0.7,5.4-2.2c3-3,3-7.8,0-10.8C83.9,73.1,81.9,72.3,80,72.3L80,72.3z"/>
			</g>
		</g>
		<g>
			<path class="st1" d="M20,25.7c-1.5,0-2.9-0.6-4-1.6c-1.1-1.1-1.6-2.5-1.6-4c0-1.5,0.6-2.9,1.6-4c1.1-1.1,2.5-1.6,4-1.6
				c1.5,0,2.9,0.6,4,1.6c2.2,2.2,2.2,5.8,0,8C23,25.1,21.5,25.7,20,25.7z"/>
			<g>
				<path class="st0" d="M20,16.4c1,0,1.9,0.4,2.6,1.1c0.7,0.7,1.1,1.6,1.1,2.6s-0.4,1.9-1.1,2.6c-0.7,0.7-1.6,1.1-2.6,1.1
					s-1.9-0.4-2.6-1.1c-0.7-0.7-1.1-1.6-1.1-2.6s0.4-1.9,1.1-2.6C18.2,16.8,19.1,16.4,20,16.4 M20,12.4c-2,0-3.9,0.7-5.4,2.2
					c-3,3-3,7.8,0,10.8c1.5,1.5,3.4,2.2,5.4,2.2s3.9-0.7,5.4-2.2c3-3,3-7.8,0-10.8C23.9,13.2,22,12.4,20,12.4L20,12.4z"/>
			</g>
		</g>
	</g>
</g>
</svg>
