<?xml version="1.0" encoding="utf-8"?>
<!-- Generator: Adobe Illustrator 22.1.0, SVG Export Plug-In . SVG Version: 6.00 Build 0)  -->
<svg version="1.1" id="Layer_1" xmlns="http://www.w3.org/2000/svg" xmlns:xlink="http://www.w3.org/1999/xlink" x="0px" y="0px"
	 viewBox="0 0 100 100" style="enable-background:new 0 0 100 100;" xml:space="preserve">
<style type="text/css">
	.st0{fill:#DB72AC;}
	.st1{fill:#E577B4;}
	.st2{fill:#F27EBE;}
	.st3{fill:#BF6496;}
</style>
<g>
	<g>
		<g>
			<rect x="57.4" y="48.8" class="st0" width="17" height="3"/>
			<rect x="72.2" y="40.9" class="st0" width="3" height="18.2"/>
			<g>
				<g>
					
						<rect x="58.8" y="60.3" transform="matrix(0.7071 -0.7071 0.7071 0.7071 -23.8055 66.1054)" class="st0" width="18.2" height="3"/>
					
						<rect x="63.4" y="63.7" transform="matrix(0.1378 -0.9905 0.9905 0.1378 -2.0963 128.0318)" class="st0" width="18.2" height="3"/>
					
						<rect x="76.2" y="54.1" transform="matrix(0.8273 -0.5617 0.5617 0.8273 -22.0707 54.5828)" class="st0" width="3" height="18.2"/>
					
						<rect x="75.1" y="71" transform="matrix(0.7762 -0.6305 0.6305 0.7762 -33.3561 66.2494)" class="st0" width="3" height="18.2"/>
					
						<rect x="63.5" y="66" transform="matrix(0.9369 -0.3497 0.3497 0.9369 -22.1702 27.4738)" class="st0" width="3" height="18.2"/>
					<rect x="89.3" y="63" transform="matrix(0.2221 -0.975 0.975 0.2221 0.3288 144.6221)" class="st0" width="3" height="18.2"/>
				</g>
				<g>
					
						<rect x="66.4" y="29.1" transform="matrix(0.7071 -0.7071 0.7071 0.7071 -7.1341 59.1999)" class="st0" width="3" height="18.2"/>
					
						<rect x="71" y="25.7" transform="matrix(0.9905 -0.1378 0.1378 0.9905 -4.1021 10.3245)" class="st0" width="3" height="18.2"/>
					
						<rect x="68.7" y="35.3" transform="matrix(0.5617 -0.8273 0.8273 0.5617 3.6273 80.4612)" class="st0" width="18.2" height="3"/>
					
						<rect x="67.6" y="18.4" transform="matrix(0.6305 -0.7762 0.7762 0.6305 12.8874 66.844)" class="st0" width="18.2" height="3"/>
					
						<rect x="55.9" y="23.4" transform="matrix(0.3497 -0.9369 0.9369 0.3497 18.9633 77.0624)" class="st0" width="18.2" height="3"/>
					
						<rect x="81.7" y="26.4" transform="matrix(0.975 -0.2221 0.2221 0.975 -3.9278 20.8664)" class="st0" width="18.2" height="3"/>
				</g>
			</g>
		</g>
	</g>
	<g>
		<polygon class="st1" points="56.1,50 14.1,32.7 14.1,65.7 		"/>
		<polygon class="st0" points="14.1,65.7 0,50 14.1,32.7 		"/>
		<polygon class="st0" points="14.1,65.7 50.3,71.2 56.1,50 		"/>
		<polygon class="st0" points="14.1,32.7 56.1,50 50.3,28.8 		"/>
		<polygon class="st2" points="14.1,65.7 13,71.2 50.3,71.2 		"/>
		<polygon class="st2" points="14.1,32.7 13,28.8 50.3,28.8 		"/>
		<polygon class="st1" points="50.3,71.2 63.2,50 56.1,50 		"/>
		<polygon class="st1" points="50.3,28.8 56.1,50 63.2,50 		"/>
		<polygon class="st3" points="13,71.2 0,50 14.1,65.7 		"/>
		<polygon class="st3" points="13,28.8 14.1,32.7 0,50 		"/>
	</g>
</g>
</svg>
